<svg xmlns="http://www.w3.org/2000/svg" width="686" height="380" fill="none" viewBox="0 0 686 380">
  <g clip-path="url(#a)">
    <path stroke="#EBEDF0" d="M0 355h686M0 299h686M0 243h686M0 187h686M0 131h686M0 75h686M0 19h686M414 134l1 220.998"/>
    <g clip-path="url(#b)">
      <path fill="#9FA2B4" d="M3.002 377.09c-.8 0-1.413-.31-1.84-.93-.427-.62-.64-1.517-.64-2.69 0-1.18.213-2.077.64-2.69.427-.613 1.04-.92 1.84-.92.807 0 1.42.307 1.84.92.427.613.64 1.507.64 2.68 0 1.18-.213 2.08-.64 2.7-.427.62-1.04.93-1.84.93Zm0-.72c.56 0 .977-.237 1.25-.71s.41-1.207.41-2.2c0-1-.137-1.73-.41-2.19-.273-.467-.69-.7-1.25-.7-.553 0-.97.233-1.25.7-.273.467-.41 1.197-.41 2.19 0 .993.137 1.727.41 2.2.28.473.697.71 1.25.71Zm24.27.63v-.71h1.66v-5.63h.44l-1.94 1.21v-.83l1.73-1.09h.6v6.34h1.56v.71h-4.05Zm25.59 0v-.62l2.5-2.61c.327-.34.57-.663.73-.97.167-.313.25-.637.25-.97 0-.407-.127-.713-.38-.92-.253-.213-.62-.32-1.1-.32-.373 0-.72.067-1.04.2-.313.127-.617.33-.91.61l-.3-.65a2.9 2.9 0 0 1 1.02-.64c.413-.167.85-.25 1.31-.25.713 0 1.263.167 1.65.5.387.327.58.793.58 1.4 0 .447-.11.873-.33 1.28-.213.4-.527.813-.94 1.24l-2.21 2.24v-.23h3.78v.71h-4.61Zm28.1.09c-.473 0-.927-.073-1.36-.22a2.978 2.978 0 0 1-1.09-.63l.31-.64c.327.267.663.46 1.01.58.347.12.72.18 1.12.18.527 0 .927-.11 1.2-.33.273-.227.41-.557.41-.99 0-.413-.14-.727-.42-.94-.28-.22-.69-.33-1.23-.33h-1.06v-.69h.99c.467 0 .837-.12 1.11-.36.273-.24.41-.567.41-.98 0-.373-.127-.657-.38-.85-.247-.2-.603-.3-1.07-.3-.76 0-1.417.27-1.97.81l-.31-.65c.273-.28.617-.497 1.03-.65a3.57 3.57 0 0 1 1.3-.24c.693 0 1.237.16 1.63.48.393.32.59.763.59 1.33 0 .433-.123.807-.37 1.12-.247.307-.58.517-1 .63v-.11c.5.08.887.28 1.16.6.273.313.41.71.41 1.19 0 .613-.217 1.1-.65 1.46-.427.353-1.017.53-1.77.53Zm26.9-.09v-1.53h-3.36v-.6l3.49-4.92h.68v4.85h1.08v.67h-1.08V377h-.81Zm0-2.2v-3.87h.22l-2.9 4.08v-.21h2.68Zm25.27 2.29c-.307 0-.607-.033-.9-.1a3.828 3.828 0 0 1-.83-.29 2.849 2.849 0 0 1-.67-.46l.31-.64c.327.26.66.453 1 .58.34.12.703.18 1.09.18.507 0 .903-.137 1.19-.41.287-.273.43-.633.43-1.08 0-.46-.137-.837-.41-1.13-.273-.293-.653-.44-1.14-.44-.347 0-.657.07-.93.21-.273.133-.51.343-.71.63h-.6v-4.19h4.18v.7h-3.38v2.81h-.22c.18-.28.427-.493.74-.64.32-.153.68-.23 1.08-.23.453 0 .843.093 1.17.28.333.187.59.447.77.78.18.333.27.723.27 1.17 0 .447-.1.843-.3 1.19-.193.34-.473.607-.84.8-.36.187-.793.28-1.3.28Zm26.1 0c-.853 0-1.513-.3-1.98-.9-.46-.607-.69-1.453-.69-2.54 0-.813.117-1.5.35-2.06.233-.567.567-.997 1-1.29.433-.293.957-.44 1.57-.44.367 0 .737.077 1.11.23.373.147.68.353.92.62l-.3.64c-.253-.26-.53-.45-.83-.57-.3-.127-.603-.19-.91-.19-.68 0-1.203.243-1.57.73-.36.48-.54 1.203-.54 2.17v.93h-.09c.047-.38.16-.707.34-.98.187-.28.43-.493.73-.64.3-.147.633-.22 1-.22.427 0 .803.093 1.13.28.327.187.583.45.77.79.187.333.28.717.28 1.15 0 .44-.097.833-.29 1.18a2.12 2.12 0 0 1-.81.82c-.347.193-.743.29-1.19.29Zm-.06-.7c.307 0 .577-.063.81-.19.24-.133.423-.317.55-.55.133-.24.2-.513.2-.82 0-.307-.067-.577-.2-.81a1.367 1.367 0 0 0-.55-.55 1.606 1.606 0 0 0-.81-.2c-.307 0-.577.067-.81.2a1.453 1.453 0 0 0-.55.55c-.127.233-.19.503-.19.81 0 .307.063.58.19.82.133.233.317.417.55.55.233.127.503.19.81.19Zm23.96.61 3.47-6.7v.36h-3.94v-.71h4.69v.62l-3.31 6.43h-.91Zm27.87.09c-.807 0-1.43-.17-1.87-.51-.44-.347-.66-.83-.66-1.45 0-.487.15-.89.45-1.21.3-.327.697-.523 1.19-.59v.15c-.447-.093-.803-.297-1.07-.61a1.71 1.71 0 0 1-.4-1.13c0-.593.21-1.053.63-1.38.42-.333.997-.5 1.73-.5.74 0 1.32.167 1.74.5.42.327.63.787.63 1.38 0 .433-.127.81-.38 1.13-.247.32-.593.52-1.04.6v-.14c.487.067.873.263 1.16.59.287.32.43.723.43 1.21 0 .62-.22 1.103-.66 1.45-.44.34-1.067.51-1.88.51Zm0-.68c.587 0 1.023-.11 1.31-.33.293-.22.44-.553.44-1 0-.44-.147-.767-.44-.98-.287-.22-.723-.33-1.31-.33-.587 0-1.027.11-1.32.33-.287.213-.43.54-.43.98 0 .447.147.78.44 1 .293.22.73.33 1.31.33Zm0-3.32c.507 0 .893-.113 1.16-.34.273-.227.41-.54.41-.94 0-.4-.137-.71-.41-.93-.267-.227-.653-.34-1.16-.34-.507 0-.897.113-1.17.34-.267.22-.4.53-.4.93s.133.713.4.94c.273.227.663.34 1.17.34Zm25.53 4c-.367 0-.737-.077-1.11-.23a2.852 2.852 0 0 1-.93-.62l.31-.65c.253.26.53.453.83.58.3.127.603.19.91.19.673 0 1.19-.24 1.55-.72.367-.487.55-1.213.55-2.18v-.93h.1c-.04.373-.157.7-.35.98-.187.28-.43.493-.73.64-.293.147-.623.22-.99.22-.427 0-.807-.093-1.14-.28a1.998 1.998 0 0 1-.77-.79 2.345 2.345 0 0 1-.28-1.15c0-.447.097-.84.29-1.18.2-.347.47-.617.81-.81.347-.2.743-.3 1.19-.3.86 0 1.52.3 1.98.9.467.6.7 1.447.7 2.54 0 .807-.117 1.493-.35 2.06-.233.567-.567.997-1 1.29-.433.293-.957.44-1.57.44Zm.31-3.41c.307 0 .577-.067.81-.2.233-.133.413-.317.54-.55.133-.233.2-.503.2-.81 0-.313-.067-.587-.2-.82a1.387 1.387 0 0 0-.54-.55 1.606 1.606 0 0 0-.81-.2c-.307 0-.58.067-.82.2a1.453 1.453 0 0 0-.55.55 1.69 1.69 0 0 0-.19.82c0 .307.063.577.19.81.133.233.317.417.55.55.24.133.513.2.82.2Zm25.382 3.32v-.71h1.66v-5.63h.44l-1.94 1.21v-.83l1.73-1.09h.6v6.34h1.56v.71h-4.05Zm7.826.09c-.8 0-1.413-.31-1.84-.93-.427-.62-.64-1.517-.64-2.69 0-1.18.213-2.077.64-2.69.427-.613 1.04-.92 1.84-.92.807 0 1.42.307 1.84.92.427.613.64 1.507.64 2.68 0 1.18-.213 2.08-.64 2.7-.427.62-1.04.93-1.84.93Zm0-.72c.56 0 .977-.237 1.25-.71s.41-1.207.41-2.2c0-1-.137-1.73-.41-2.19-.273-.467-.69-.7-1.25-.7-.553 0-.97.233-1.25.7-.273.467-.41 1.197-.41 2.19 0 .993.137 1.727.41 2.2.28.473.697.71 1.25.71Zm26.174.63v-.71h1.66v-5.63h.44l-1.94 1.21v-.83l1.73-1.09h.6v6.34h1.56v.71h-4.05Zm6.096 0v-.71h1.66v-5.63h.44l-1.94 1.21v-.83l1.73-1.09h.6v6.34h1.56v.71h-4.05Zm27.904 0v-.71h1.66v-5.63h.44l-1.94 1.21v-.83l1.73-1.09h.6v6.34h1.56v.71h-4.05Zm5.686 0v-.62l2.5-2.61c.327-.34.57-.663.73-.97.167-.313.25-.637.25-.97 0-.407-.127-.713-.38-.92-.253-.213-.62-.32-1.1-.32-.373 0-.72.067-1.04.2-.313.127-.617.33-.91.61l-.3-.65a2.9 2.9 0 0 1 1.02-.64c.413-.167.85-.25 1.31-.25.713 0 1.263.167 1.65.5.387.327.58.793.58 1.4 0 .447-.11.873-.33 1.28-.213.4-.527.813-.94 1.24l-2.21 2.24v-.23h3.78v.71h-4.61Zm28.314 0v-.71h1.66v-5.63h.44l-1.94 1.21v-.83l1.73-1.09h.6v6.34h1.56v.71h-4.05Zm7.786.09c-.473 0-.927-.073-1.36-.22a2.98 2.98 0 0 1-1.09-.63l.31-.64c.327.267.663.46 1.01.58.347.12.72.18 1.12.18.527 0 .927-.11 1.2-.33.273-.227.41-.557.41-.99 0-.413-.14-.727-.42-.94-.28-.22-.69-.33-1.23-.33h-1.06v-.69h.99c.467 0 .837-.12 1.11-.36.273-.24.41-.567.41-.98 0-.373-.127-.657-.38-.85-.247-.2-.603-.3-1.07-.3-.76 0-1.417.27-1.97.81l-.31-.65c.273-.28.617-.497 1.03-.65a3.57 3.57 0 0 1 1.3-.24c.693 0 1.237.16 1.63.48.393.32.59.763.59 1.33 0 .433-.123.807-.37 1.12-.247.307-.58.517-1 .63v-.11c.5.08.887.28 1.16.6.273.313.41.71.41 1.19 0 .613-.217 1.1-.65 1.46-.427.353-1.017.53-1.77.53Zm26.214-.09v-.71h1.66v-5.63h.44l-1.94 1.21v-.83l1.73-1.09h.6v6.34h1.56v.71h-4.05Zm8.686 0v-1.53h-3.36v-.6l3.49-4.92h.68v4.85h1.08v.67h-1.08V377h-.81Zm0-2.2v-3.87h.22l-2.9 4.08v-.21h2.68Zm25.314 2.2v-.71h1.66v-5.63h.44l-1.94 1.21v-.83l1.73-1.09h.6v6.34h1.56v.71h-4.05Zm7.956.09c-.307 0-.607-.033-.9-.1a3.828 3.828 0 0 1-.83-.29 2.849 2.849 0 0 1-.67-.46l.31-.64c.327.26.66.453 1 .58.34.12.703.18 1.09.18.507 0 .903-.137 1.19-.41.287-.273.43-.633.43-1.08 0-.46-.137-.837-.41-1.13-.273-.293-.653-.44-1.14-.44-.347 0-.657.07-.93.21-.273.133-.51.343-.71.63h-.6v-4.19h4.18v.7h-3.38v2.81h-.22c.18-.28.427-.493.74-.64.32-.153.68-.23 1.08-.23.453 0 .843.093 1.17.28.333.187.59.447.77.78.18.333.27.723.27 1.17 0 .447-.1.843-.3 1.19-.193.34-.473.607-.84.8-.36.187-.793.28-1.3.28Zm26.044-.09v-.71h1.66v-5.63h.44l-1.94 1.21v-.83l1.73-1.09h.6v6.34h1.56v.71h-4.05Zm8.056.09c-.853 0-1.513-.3-1.98-.9-.46-.607-.69-1.453-.69-2.54 0-.813.117-1.5.35-2.06.233-.567.567-.997 1-1.29.433-.293.957-.44 1.57-.44.367 0 .737.077 1.11.23.373.147.68.353.92.62l-.3.64c-.253-.26-.53-.45-.83-.57-.3-.127-.603-.19-.91-.19-.68 0-1.203.243-1.57.73-.36.48-.54 1.203-.54 2.17v.93h-.09c.047-.38.16-.707.34-.98.187-.28.43-.493.73-.64.3-.147.633-.22 1-.22.427 0 .803.093 1.13.28.327.187.583.45.77.79.187.333.28.717.28 1.15 0 .44-.097.833-.29 1.18a2.12 2.12 0 0 1-.81.82c-.347.193-.743.29-1.19.29Zm-.06-.7c.307 0 .577-.063.81-.19.24-.133.423-.317.55-.55.133-.24.2-.513.2-.82 0-.307-.067-.577-.2-.81a1.367 1.367 0 0 0-.55-.55 1.606 1.606 0 0 0-.81-.2c-.307 0-.577.067-.81.2a1.453 1.453 0 0 0-.55.55c-.127.233-.19.503-.19.81 0 .307.063.58.19.82.133.233.317.417.55.55.233.127.503.19.81.19Zm26.004.61v-.71h1.66v-5.63h.44l-1.94 1.21v-.83l1.73-1.09h.6v6.34h1.56v.71h-4.05Zm5.956 0 3.47-6.7v.36h-3.94v-.71h4.69v.62l-3.31 6.43h-.91Zm28.044 0v-.71h1.66v-5.63h.44l-1.94 1.21v-.83l1.73-1.09h.6v6.34h1.56v.71h-4.05Zm7.826.09c-.807 0-1.43-.17-1.87-.51-.44-.347-.66-.83-.66-1.45 0-.487.15-.89.45-1.21.3-.327.697-.523 1.19-.59v.15c-.447-.093-.803-.297-1.07-.61a1.71 1.71 0 0 1-.4-1.13c0-.593.21-1.053.63-1.38.42-.333.997-.5 1.73-.5.74 0 1.32.167 1.74.5.42.327.63.787.63 1.38 0 .433-.127.81-.38 1.13-.247.32-.593.52-1.04.6v-.14c.487.067.873.263 1.16.59.287.32.43.723.43 1.21 0 .62-.22 1.103-.66 1.45-.44.34-1.067.51-1.88.51Zm0-.68c.587 0 1.023-.11 1.31-.33.293-.22.44-.553.44-1 0-.44-.147-.767-.44-.98-.287-.22-.723-.33-1.31-.33-.587 0-1.027.11-1.32.33-.287.213-.43.54-.43.98 0 .447.147.78.44 1 .293.22.73.33 1.31.33Zm0-3.32c.507 0 .893-.113 1.16-.34.273-.227.41-.54.41-.94 0-.4-.137-.71-.41-.93-.267-.227-.653-.34-1.16-.34-.507 0-.897.113-1.17.34-.267.22-.4.53-.4.93s.133.713.4.94c.273.227.663.34 1.17.34Zm26.174 3.91v-.71h1.66v-5.63h.44l-1.94 1.21v-.83l1.73-1.09h.6v6.34h1.56v.71h-4.05Zm7.356.09c-.367 0-.737-.077-1.11-.23a2.852 2.852 0 0 1-.93-.62l.31-.65c.253.26.53.453.83.58.3.127.603.19.91.19.673 0 1.19-.24 1.55-.72.367-.487.55-1.213.55-2.18v-.93h.1c-.04.373-.157.7-.35.98-.187.28-.43.493-.73.64-.293.147-.623.22-.99.22-.427 0-.807-.093-1.14-.28a1.998 1.998 0 0 1-.77-.79 2.345 2.345 0 0 1-.28-1.15c0-.447.097-.84.29-1.18.2-.347.47-.617.81-.81.347-.2.743-.3 1.19-.3.86 0 1.52.3 1.98.9.467.6.7 1.447.7 2.54 0 .807-.117 1.493-.35 2.06-.233.567-.567.997-1 1.29-.433.293-.957.44-1.57.44Zm.31-3.41c.307 0 .577-.067.81-.2.233-.133.413-.317.54-.55.133-.233.2-.503.2-.81 0-.313-.067-.587-.2-.82a1.387 1.387 0 0 0-.54-.55 1.606 1.606 0 0 0-.81-.2c-.307 0-.58.067-.82.2a1.453 1.453 0 0 0-.55.55 1.69 1.69 0 0 0-.19.82c0 .307.063.577.19.81.133.233.317.417.55.55.24.133.513.2.82.2Zm25.924 3.32v-.62l2.5-2.61c.327-.34.57-.663.73-.97.167-.313.25-.637.25-.97 0-.407-.127-.713-.38-.92-.253-.213-.62-.32-1.1-.32-.373 0-.72.067-1.04.2-.313.127-.617.33-.91.61l-.3-.65a2.9 2.9 0 0 1 1.02-.64c.413-.167.85-.25 1.31-.25.713 0 1.263.167 1.65.5.387.327.58.793.58 1.4 0 .447-.11.873-.33 1.28-.213.4-.527.813-.94 1.24l-2.21 2.24v-.23h3.78v.71h-4.61Zm8.236.09c-.8 0-1.413-.31-1.84-.93-.427-.62-.64-1.517-.64-2.69 0-1.18.213-2.077.64-2.69.427-.613 1.04-.92 1.84-.92.807 0 1.42.307 1.84.92.427.613.64 1.507.64 2.68 0 1.18-.213 2.08-.64 2.7-.427.62-1.04.93-1.84.93Zm0-.72c.56 0 .977-.237 1.25-.71s.41-1.207.41-2.2c0-1-.137-1.73-.41-2.19-.273-.467-.69-.7-1.25-.7-.553 0-.97.233-1.25.7-.273.467-.41 1.197-.41 2.19 0 .993.137 1.727.41 2.2.28.473.697.71 1.25.71Zm25.764.63v-.62l2.5-2.61c.327-.34.57-.663.73-.97.167-.313.25-.637.25-.97 0-.407-.127-.713-.38-.92-.253-.213-.62-.32-1.1-.32-.373 0-.72.067-1.04.2-.313.127-.617.33-.91.61l-.3-.65a2.9 2.9 0 0 1 1.02-.64c.413-.167.85-.25 1.31-.25.713 0 1.263.167 1.65.5.387.327.58.793.58 1.4 0 .447-.11.873-.33 1.28-.213.4-.527.813-.94 1.24l-2.21 2.24v-.23h3.78v.71h-4.61Zm6.506 0v-.71h1.66v-5.63h.44l-1.94 1.21v-.83l1.73-1.09h.6v6.34h1.56v.71h-4.05Zm27.494 0v-.62l2.5-2.61c.327-.34.57-.663.73-.97.167-.313.25-.637.25-.97 0-.407-.127-.713-.38-.92-.253-.213-.62-.32-1.1-.32-.373 0-.72.067-1.04.2-.313.127-.617.33-.91.61l-.3-.65a2.9 2.9 0 0 1 1.02-.64c.413-.167.85-.25 1.31-.25.713 0 1.263.167 1.65.5.387.327.58.793.58 1.4 0 .447-.11.873-.33 1.28-.213.4-.527.813-.94 1.24l-2.21 2.24v-.23h3.78v.71h-4.61Zm6.096 0v-.62l2.5-2.61c.327-.34.57-.663.73-.97.167-.313.25-.637.25-.97 0-.407-.127-.713-.38-.92-.253-.213-.62-.32-1.1-.32-.373 0-.72.067-1.04.2-.313.127-.617.33-.91.61l-.3-.65a2.9 2.9 0 0 1 1.02-.64c.413-.167.85-.25 1.31-.25.713 0 1.263.167 1.65.5.387.327.58.793.58 1.4 0 .447-.11.873-.33 1.28-.213.4-.527.813-.94 1.24l-2.21 2.24v-.23h3.78v.71h-4.61Z"/>
    </g>
    <path fill="#9FA2B4" d="M683.004 346.09c-.8 0-1.413-.31-1.84-.93-.427-.62-.64-1.517-.64-2.69 0-1.18.213-2.077.64-2.69.427-.613 1.04-.92 1.84-.92.807 0 1.42.307 1.84.92.427.613.64 1.507.64 2.68 0 1.18-.213 2.08-.64 2.7-.427.62-1.04.93-1.84.93Zm0-.72c.56 0 .977-.237 1.25-.71s.41-1.207.41-2.2c0-1-.137-1.73-.41-2.19-.273-.467-.69-.7-1.25-.7-.553 0-.97.233-1.25.7-.273.467-.41 1.197-.41 2.19 0 .993.137 1.727.41 2.2.28.473.697.71 1.25.71ZM675.178 290v-.71h1.66v-5.63h.44l-1.94 1.21v-.83l1.73-1.09h.6v6.34h1.56v.71h-4.05Zm7.826.09c-.8 0-1.413-.31-1.84-.93-.427-.62-.64-1.517-.64-2.69 0-1.18.213-2.077.64-2.69.427-.613 1.04-.92 1.84-.92.807 0 1.42.307 1.84.92.427.613.64 1.507.64 2.68 0 1.18-.213 2.08-.64 2.7-.427.62-1.04.93-1.84.93Zm0-.72c.56 0 .977-.237 1.25-.71s.41-1.207.41-2.2c0-1-.137-1.73-.41-2.19-.273-.467-.69-.7-1.25-.7-.553 0-.97.233-1.25.7-.273.467-.41 1.197-.41 2.19 0 .993.137 1.727.41 2.2.28.473.697.71 1.25.71ZM674.768 234v-.62l2.5-2.61c.326-.34.57-.663.73-.97.166-.313.25-.637.25-.97 0-.407-.127-.713-.38-.92-.254-.213-.62-.32-1.1-.32-.374 0-.72.067-1.04.2-.314.127-.617.33-.91.61l-.3-.65c.266-.267.606-.48 1.02-.64.413-.167.85-.25 1.31-.25.713 0 1.263.167 1.65.5.386.327.58.793.58 1.4 0 .447-.11.873-.33 1.28-.214.4-.527.813-.94 1.24l-2.21 2.24v-.23h3.78v.71h-4.61Zm8.236.09c-.8 0-1.413-.31-1.84-.93-.427-.62-.64-1.517-.64-2.69 0-1.18.213-2.077.64-2.69.427-.613 1.04-.92 1.84-.92.807 0 1.42.307 1.84.92.427.613.64 1.507.64 2.68 0 1.18-.213 2.08-.64 2.7-.427.62-1.04.93-1.84.93Zm0-.72c.56 0 .977-.237 1.25-.71s.41-1.207.41-2.2c0-1-.137-1.73-.41-2.19-.273-.467-.69-.7-1.25-.7-.553 0-.97.233-1.25.7-.273.467-.41 1.197-.41 2.19 0 .993.137 1.727.41 2.2.28.473.697.71 1.25.71Zm-6.136-55.28a4.2 4.2 0 0 1-1.36-.22 2.971 2.971 0 0 1-1.09-.63l.31-.64a3.3 3.3 0 0 0 1.01.58c.346.12.72.18 1.12.18.526 0 .926-.11 1.2-.33.273-.227.41-.557.41-.99 0-.413-.14-.727-.42-.94-.28-.22-.69-.33-1.23-.33h-1.06v-.69h.99c.466 0 .836-.12 1.11-.36.273-.24.41-.567.41-.98 0-.373-.127-.657-.38-.85-.247-.2-.604-.3-1.07-.3-.76 0-1.417.27-1.97.81l-.31-.65c.273-.28.616-.497 1.03-.65.413-.16.846-.24 1.3-.24.693 0 1.236.16 1.63.48.393.32.59.763.59 1.33 0 .433-.124.807-.37 1.12-.247.307-.58.517-1 .63v-.11c.5.08.886.28 1.16.6.273.313.41.71.41 1.19 0 .613-.217 1.1-.65 1.46-.427.353-1.017.53-1.77.53Zm6.136 0c-.8 0-1.413-.31-1.84-.93-.427-.62-.64-1.517-.64-2.69 0-1.18.213-2.077.64-2.69.427-.613 1.04-.92 1.84-.92.807 0 1.42.307 1.84.92.427.613.64 1.507.64 2.68 0 1.18-.213 2.08-.64 2.7-.427.62-1.04.93-1.84.93Zm0-.72c.56 0 .977-.237 1.25-.71s.41-1.207.41-2.2c0-1-.137-1.73-.41-2.19-.273-.467-.69-.7-1.25-.7-.553 0-.97.233-1.25.7-.273.467-.41 1.197-.41 2.19 0 .993.137 1.727.41 2.2.28.473.697.71 1.25.71ZM677.768 122v-1.53h-3.36v-.6l3.49-4.92h.68v4.85h1.08v.67h-1.08V122h-.81Zm0-2.2v-3.87h.22l-2.9 4.08v-.21h2.68Zm5.236 2.29c-.8 0-1.413-.31-1.84-.93-.427-.62-.64-1.517-.64-2.69 0-1.18.213-2.077.64-2.69.427-.613 1.04-.92 1.84-.92.807 0 1.42.307 1.84.92.427.613.64 1.507.64 2.68 0 1.18-.213 2.08-.64 2.7-.427.62-1.04.93-1.84.93Zm0-.72c.56 0 .977-.237 1.25-.71s.41-1.207.41-2.2c0-1-.137-1.73-.41-2.19-.273-.467-.69-.7-1.25-.7-.553 0-.97.233-1.25.7-.273.467-.41 1.197-.41 2.19 0 .993.137 1.727.41 2.2.28.473.697.71 1.25.71Zm-5.966-55.28c-.307 0-.607-.033-.9-.1a3.81 3.81 0 0 1-.83-.29 2.82 2.82 0 0 1-.67-.46l.31-.64c.326.26.66.453 1 .58.34.12.703.18 1.09.18.506 0 .903-.137 1.19-.41.286-.273.43-.633.43-1.08 0-.46-.137-.837-.41-1.13-.274-.293-.654-.44-1.14-.44-.347 0-.657.07-.93.21-.274.133-.51.343-.71.63h-.6v-4.19h4.18v.7h-3.38v2.81h-.22c.18-.28.426-.493.74-.64.32-.153.68-.23 1.08-.23.453 0 .843.093 1.17.28.333.187.59.447.77.78.18.333.27.723.27 1.17 0 .447-.1.843-.3 1.19-.194.34-.474.607-.84.8-.36.187-.794.28-1.3.28Zm5.966 0c-.8 0-1.413-.31-1.84-.93-.427-.62-.64-1.517-.64-2.69 0-1.18.213-2.077.64-2.69.427-.613 1.04-.92 1.84-.92.807 0 1.42.307 1.84.92.427.613.64 1.507.64 2.68 0 1.18-.213 2.08-.64 2.7-.427.62-1.04.93-1.84.93Zm0-.72c.56 0 .977-.237 1.25-.71s.41-1.207.41-2.2c0-1-.137-1.73-.41-2.19-.273-.467-.69-.7-1.25-.7-.553 0-.97.233-1.25.7-.273.467-.41 1.197-.41 2.19 0 .993.137 1.727.41 2.2.28.473.697.71 1.25.71Zm-5.866-55.28c-.854 0-1.514-.3-1.98-.9-.46-.607-.69-1.453-.69-2.54 0-.813.116-1.5.35-2.06.233-.567.566-.997 1-1.29.433-.293.956-.44 1.57-.44.366 0 .736.077 1.11.23.373.147.68.353.92.62l-.3.64c-.254-.26-.53-.45-.83-.57-.3-.127-.604-.19-.91-.19-.68 0-1.204.243-1.57.73-.36.48-.54 1.203-.54 2.17v.93h-.09c.046-.38.16-.707.34-.98.186-.28.43-.493.73-.64.3-.147.633-.22 1-.22.426 0 .803.093 1.13.28.326.187.583.45.77.79.186.333.28.717.28 1.15 0 .44-.097.833-.29 1.18-.194.347-.464.62-.81.82-.347.193-.744.29-1.19.29Zm-.06-.7c.306 0 .576-.063.81-.19.24-.133.423-.317.55-.55.133-.24.2-.513.2-.82 0-.307-.067-.577-.2-.81a1.367 1.367 0 0 0-.55-.55 1.607 1.607 0 0 0-.81-.2c-.307 0-.577.067-.81.2a1.446 1.446 0 0 0-.55.55c-.127.233-.19.503-.19.81 0 .307.063.58.19.82.133.233.316.417.55.55.233.127.503.19.81.19Zm5.926.7c-.8 0-1.413-.31-1.84-.93-.427-.62-.64-1.517-.64-2.69 0-1.18.213-2.077.64-2.69.427-.613 1.04-.92 1.84-.92.807 0 1.42.307 1.84.92.427.613.64 1.507.64 2.68 0 1.18-.213 2.08-.64 2.7-.427.62-1.04.93-1.84.93Zm0-.72c.56 0 .977-.237 1.25-.71s.41-1.207.41-2.2c0-1-.137-1.73-.41-2.19-.273-.467-.69-.7-1.25-.7-.553 0-.97.233-1.25.7-.273.467-.41 1.197-.41 2.19 0 .993.137 1.727.41 2.2.28.473.697.71 1.25.71Z"/>
    <mask id="c" width="576" height="336" x="0" y="19" maskUnits="userSpaceOnUse" style="mask-type:alpha">
      <path fill="#C4C4C4" d="M0 19h576v336H0z"/>
    </mask>
    <g mask="url(#c)">
      <mask id="e" width="606" height="331" x="-10" y="70" maskUnits="userSpaceOnUse" style="mask-type:alpha">
        <path fill="url(#d)" d="M94.477 188.886C47.559 187.226 2.943 265.21-9.132 297.727V400.5H595.72V144c-55.975-2.5-73.677-58.895-116.585-58.895-42.907 0-81.646 81.64-103.495 124.536-17.939 38.191-40.823 46.355-50.023 45.663-42.778 1.66-75.321-83.715-86.246-126.611-9.659-48.154-20.534-58.117-25.874-58.117-8.958-.03-22.424 14.115-36.223 62.268-13.799 48.154-35.648 61.576-44.848 62.268-12.868.968-28.174-6.226-37.948-6.226Z"/>
      </mask>
      <g mask="url(#e)">
        <path fill="#3751FF" d="M94.477 188.886C47.559 187.226 2.943 265.21-9.132 297.727V400.5H595.72V144c-55.975-2.5-73.677-58.895-116.585-58.895-42.907 0-81.646 81.64-103.495 124.536-17.939 38.191-40.823 46.355-50.023 45.663-42.778 1.66-75.321-83.715-86.246-126.611-9.659-48.154-20.534-58.117-25.874-58.117-8.958-.03-22.424 14.115-36.223 62.268-13.799 48.154-35.648 61.576-44.848 62.268-12.868.968-28.174-6.226-37.948-6.226Z" opacity=".1"/>
      </g>
      <path stroke="#DFE0EB" stroke-linejoin="round" stroke-width="2" d="M-9.132 173c76.471-37.5 76.948 53.449 129.435 53.449 52.487 0 37.696-54.76 98.294-63.605C279.196 154 317.369 261 366.516 261c49.147 0 72.05-143 89.228-143 17.178 0 7.635 72.5 50.101 72.5 42.467 0 68.99-47.84 111.655-49.5"/>
      <path stroke="#3751FF" stroke-linejoin="round" stroke-width="2" d="M-9.132 297.727C2.888 265.21 47.304 187.226 94.011 188.886c9.731 0 24.968 7.194 37.778 6.226 9.158-.692 30.909-14.114 44.646-62.268 13.737-48.153 27.143-62.298 36.061-62.267 5.315 0 16.141 9.962 25.757 58.116 10.876 42.896 43.273 128.271 85.859 126.611 9.158.692 31.939-7.472 49.797-45.663C395.66 166.745 434.225 85.105 476.94 85.105c42.714 0 60.336 56.395 116.06 58.895"/>
      <circle cx="414" cy="134" r="13" stroke="#3751FF" stroke-width="2" opacity=".16"/>
      <g filter="url(#f)">
        <circle cx="414" cy="134" r="7" fill="#fff"/>
        <circle cx="414" cy="134" r="5" stroke="#3751FF" stroke-width="4"/>
      </g>
      <g filter="url(#g)">
        <mask id="h" width="66" height="38" x="381" y="72" fill="#000" maskUnits="userSpaceOnUse">
          <path fill="#fff" d="M381 72h66v38h-66z"/>
          <path fill-rule="evenodd" d="M386 73h56a4 4 0 0 1 4 4v22a4 4 0 0 1-4 4h-21l-6.74 5.777a.4.4 0 0 1-.52 0L407 103h-21a4 4 0 0 1-4-4V77a4 4 0 0 1 4-4Z" clip-rule="evenodd"/>
        </mask>
        <path fill="#fff" fill-rule="evenodd" d="M386 73h56a4 4 0 0 1 4 4v22a4 4 0 0 1-4 4h-21l-6.74 5.777a.4.4 0 0 1-.52 0L407 103h-21a4 4 0 0 1-4-4V77a4 4 0 0 1 4-4Z" clip-rule="evenodd"/>
        <path fill="#DFE0EB" d="M442 103v.5-.5Zm-21 0v-.5h-.185l-.14.12.325.38Zm-6.74 5.777-.325-.38.325.38Zm-.52 0 .325-.38-.325.38ZM407 103l.325-.38-.14-.12H407v.5Zm-21 0v.5-.5Zm56-30.5h-56v1h56v-1Zm4.5 4.5a4.5 4.5 0 0 0-4.5-4.5v1a3.5 3.5 0 0 1 3.5 3.5h1Zm0 22V77h-1v22h1Zm-4.5 4.5a4.5 4.5 0 0 0 4.5-4.5h-1a3.5 3.5 0 0 1-3.5 3.5v1Zm-21 0h21v-1h-21v1Zm-.325-.88-6.74 5.777.651.759 6.739-5.776-.65-.76Zm-6.74 5.777a.1.1 0 0 1 .13 0l-.651.759a.9.9 0 0 0 1.172 0l-.651-.759Zm.13 0-6.74-5.777-.65.76 6.739 5.776.651-.759ZM386 103.5h21v-1h-21v1Zm-4.5-4.5a4.5 4.5 0 0 0 4.5 4.5v-1a3.5 3.5 0 0 1-3.5-3.5h-1Zm0-22v22h1V77h-1Zm4.5-4.5a4.5 4.5 0 0 0-4.5 4.5h1a3.5 3.5 0 0 1 3.5-3.5v-1Z" mask="url(#h)"/>
      </g>
      <path fill="#252733" d="M409.507 93.126a6.333 6.333 0 0 1-1.932-.294c-.616-.205-1.129-.495-1.54-.868l.504-1.106c.458.355.924.616 1.4.784.476.168.985.252 1.526.252.691 0 1.214-.145 1.568-.434.364-.29.546-.705.546-1.246 0-.532-.182-.933-.546-1.204-.354-.28-.882-.42-1.582-.42h-1.526v-1.176h1.414c.598 0 1.074-.15 1.428-.448.355-.308.532-.723.532-1.246 0-.476-.163-.84-.49-1.092-.326-.261-.793-.392-1.4-.392-1.026 0-1.927.36-2.702 1.078l-.49-1.106c.383-.383.868-.677 1.456-.882a5.346 5.346 0 0 1 1.848-.322c.99 0 1.769.229 2.338.686.57.448.854 1.073.854 1.876 0 .607-.172 1.125-.518 1.554-.336.43-.798.714-1.386.854v-.154c.7.112 1.237.392 1.61.84.383.439.574.99.574 1.652 0 .877-.312 1.568-.938 2.072-.616.495-1.465.742-2.548.742Zm8.693 0c-1.139 0-2.025-.243-2.66-.728-.635-.485-.952-1.162-.952-2.03 0-.69.21-1.26.63-1.708.42-.457.971-.733 1.652-.826v.252c-.616-.13-1.111-.415-1.484-.854-.364-.439-.546-.97-.546-1.596 0-.821.299-1.465.896-1.932.597-.467 1.419-.7 2.464-.7 1.055 0 1.881.233 2.478.7.597.467.896 1.11.896 1.932 0 .625-.177 1.162-.532 1.61-.345.439-.821.714-1.428.826v-.238c.672.093 1.209.369 1.61.826.401.448.602 1.017.602 1.708 0 .868-.317 1.545-.952 2.03-.635.485-1.526.728-2.674.728Zm0-1.148c.756 0 1.321-.14 1.694-.42.373-.29.56-.719.56-1.288 0-.57-.187-.994-.56-1.274-.373-.28-.938-.42-1.694-.42s-1.321.14-1.694.42c-.373.28-.56.705-.56 1.274 0 .57.187.999.56 1.288.383.28.947.42 1.694.42Zm0-4.55c.653 0 1.148-.145 1.484-.434.345-.299.518-.705.518-1.218 0-.504-.173-.9-.518-1.19-.336-.29-.831-.434-1.484-.434-.644 0-1.139.145-1.484.434-.345.29-.518.686-.518 1.19 0 .513.173.92.518 1.218.345.29.84.434 1.484.434Z"/>
    </g>
  </g>
  <defs>
    <clipPath id="a">
      <path fill="#fff" d="M0 0h686v380H0z"/>
    </clipPath>
    <clipPath id="b">
      <path fill="#fff" d="M0 0h716v13H0z" transform="translate(0 367)"/>
    </clipPath>
    <filter id="f" width="18" height="18" x="405" y="126" color-interpolation-filters="sRGB" filterUnits="userSpaceOnUse">
      <feFlood flood-opacity="0" result="BackgroundImageFix"/>
      <feColorMatrix in="SourceAlpha" result="hardAlpha" values="0 0 0 0 0 0 0 0 0 0 0 0 0 0 0 0 0 0 127 0"/>
      <feOffset dy="1"/>
      <feGaussianBlur stdDeviation="1"/>
      <feColorMatrix values="0 0 0 0 0.215686 0 0 0 0 0.317647 0 0 0 0 1 0 0 0 0.2 0"/>
      <feBlend in2="BackgroundImageFix" result="effect1_dropShadow_584_115"/>
      <feBlend in="SourceGraphic" in2="effect1_dropShadow_584_115" result="shape"/>
    </filter>
    <filter id="g" width="73" height="44.873" x="377.5" y="69.5" color-interpolation-filters="sRGB" filterUnits="userSpaceOnUse">
      <feFlood flood-opacity="0" result="BackgroundImageFix"/>
      <feColorMatrix in="SourceAlpha" result="hardAlpha" values="0 0 0 0 0 0 0 0 0 0 0 0 0 0 0 0 0 0 127 0"/>
      <feOffset dy="1"/>
      <feGaussianBlur stdDeviation="2"/>
      <feColorMatrix values="0 0 0 0 0 0 0 0 0 0 0 0 0 0 0 0 0 0 0.08 0"/>
      <feBlend in2="BackgroundImageFix" result="effect1_dropShadow_584_115"/>
      <feBlend in="SourceGraphic" in2="effect1_dropShadow_584_115" result="shape"/>
    </filter>
    <linearGradient id="d" x1="576" x2="-2" y1="240" y2="240" gradientUnits="userSpaceOnUse">
      <stop stop-color="#fff" stop-opacity="0"/>
      <stop offset="1" stop-color="#fff"/>
    </linearGradient>
  </defs>
</svg>
